<svg id="sentiment_very_satisfied-black-18dp" xmlns="http://www.w3.org/2000/svg" width="60" height="60" viewBox="0 0 60 60">
  <path id="Trazado_96" data-name="Trazado 96" d="M0,0H60V60H0Z" fill="none"/>
  <path id="Trazado_97" data-name="Trazado 97" d="M21.264,24.232l1.484,1.484a2.1,2.1,0,0,0,2.968-2.968l-2.464-2.464a2.788,2.788,0,0,0-3.948,0l-2.492,2.464a2.1,2.1,0,0,0,2.968,2.968l1.484-1.484ZM30,45.4a15.368,15.368,0,0,0,13.3-7.7,1.408,1.408,0,0,0-1.232-2.1H17.932A1.417,1.417,0,0,0,16.7,37.7,15.368,15.368,0,0,0,30,45.4Zm4.284-19.684a2.113,2.113,0,0,0,2.968,0l1.484-1.484,1.484,1.484a2.1,2.1,0,0,0,2.968-2.968l-2.464-2.464a2.788,2.788,0,0,0-3.948,0l-2.464,2.464a2.087,2.087,0,0,0-.028,2.968ZM29.972,2A28,28,0,1,0,58,30,27.968,27.968,0,0,0,29.972,2ZM30,52.4A22.4,22.4,0,1,1,52.4,30,22.394,22.394,0,0,1,30,52.4Z" fill="#fff"/>
</svg>
